ISO-10303-21;
HEADER;
/* Generated by software containing ST-Developer
 * from STEP Tools, Inc. (www.steptools.com) 
 */

FILE_DESCRIPTION(
/* description */ (''),
/* implementation_level */ '2;1');

FILE_NAME(
/* name */ 'Capacitor 7.2x2.5x6.5mm.step',
/* time_stamp */ '2026-06-29T10:21:11+02:00',
/* author */ (''),
/* organization */ (''),
/* preprocessor_version */ 'ST-DEVELOPER v20.1',
/* originating_system */ 'Autodesk Translation Framework v15.8.0.0',
/* authorisation */ '');

FILE_SCHEMA (('AUTOMOTIVE_DESIGN { 1 0 10303 214 3 1 1 }'));
ENDSEC;

DATA;
#10=MECHANICAL_DESIGN_GEOMETRIC_PRESENTATION_REPRESENTATION('',(#146,#147,
#148,#149,#150),#277);
#11=SHAPE_REPRESENTATION_RELATIONSHIP('SRR','None',#284,#12);
#12=ADVANCED_BREP_SHAPE_REPRESENTATION('',(#13),#276);
#13=MANIFOLD_SOLID_BREP('Body1',#161);
#14=FACE_BOUND('',#44,.T.);
#15=FACE_BOUND('',#45,.T.);
#16=PLANE('',#178);
#17=PLANE('',#182);
#18=PLANE('',#183);
#19=PLANE('',#184);
#20=PLANE('',#185);
#21=PLANE('',#186);
#22=PLANE('',#187);
#23=PLANE('',#188);
#24=FACE_OUTER_BOUND('',#34,.T.);
#25=FACE_OUTER_BOUND('',#35,.T.);
#26=FACE_OUTER_BOUND('',#36,.T.);
#27=FACE_OUTER_BOUND('',#37,.T.);
#28=FACE_OUTER_BOUND('',#38,.T.);
#29=FACE_OUTER_BOUND('',#39,.T.);
#30=FACE_OUTER_BOUND('',#40,.T.);
#31=FACE_OUTER_BOUND('',#41,.T.);
#32=FACE_OUTER_BOUND('',#42,.T.);
#33=FACE_OUTER_BOUND('',#43,.T.);
#34=EDGE_LOOP('',(#108,#109,#110,#111));
#35=EDGE_LOOP('',(#112));
#36=EDGE_LOOP('',(#113,#114,#115,#116));
#37=EDGE_LOOP('',(#117));
#38=EDGE_LOOP('',(#118,#119,#120,#121));
#39=EDGE_LOOP('',(#122,#123,#124,#125));
#40=EDGE_LOOP('',(#126,#127,#128,#129));
#41=EDGE_LOOP('',(#130,#131,#132,#133));
#42=EDGE_LOOP('',(#134,#135,#136,#137));
#43=EDGE_LOOP('',(#138,#139,#140,#141));
#44=EDGE_LOOP('',(#142));
#45=EDGE_LOOP('',(#143));
#46=LINE('',#238,#60);
#47=LINE('',#245,#61);
#48=LINE('',#251,#62);
#49=LINE('',#253,#63);
#50=LINE('',#255,#64);
#51=LINE('',#256,#65);
#52=LINE('',#259,#66);
#53=LINE('',#261,#67);
#54=LINE('',#262,#68);
#55=LINE('',#265,#69);
#56=LINE('',#267,#70);
#57=LINE('',#268,#71);
#58=LINE('',#270,#72);
#59=LINE('',#271,#73);
#60=VECTOR('',#195,0.4);
#61=VECTOR('',#204,0.4);
#62=VECTOR('',#211,10.);
#63=VECTOR('',#212,10.);
#64=VECTOR('',#213,10.);
#65=VECTOR('',#214,10.);
#66=VECTOR('',#217,10.);
#67=VECTOR('',#218,10.);
#68=VECTOR('',#219,10.);
#69=VECTOR('',#222,10.);
#70=VECTOR('',#223,10.);
#71=VECTOR('',#224,10.);
#72=VECTOR('',#227,10.);
#73=VECTOR('',#228,10.);
#74=CIRCLE('',#176,0.4);
#75=CIRCLE('',#177,0.4);
#76=CIRCLE('',#180,0.4);
#77=CIRCLE('',#181,0.4);
#78=VERTEX_POINT('',#235);
#79=VERTEX_POINT('',#237);
#80=VERTEX_POINT('',#242);
#81=VERTEX_POINT('',#244);
#82=VERTEX_POINT('',#249);
#83=VERTEX_POINT('',#250);
#84=VERTEX_POINT('',#252);
#85=VERTEX_POINT('',#254);
#86=VERTEX_POINT('',#258);
#87=VERTEX_POINT('',#260);
#88=VERTEX_POINT('',#264);
#89=VERTEX_POINT('',#266);
#90=EDGE_CURVE('',#78,#78,#74,.T.);
#91=EDGE_CURVE('',#78,#79,#46,.T.);
#92=EDGE_CURVE('',#79,#79,#75,.T.);
#93=EDGE_CURVE('',#80,#80,#76,.T.);
#94=EDGE_CURVE('',#80,#81,#47,.T.);
#95=EDGE_CURVE('',#81,#81,#77,.T.);
#96=EDGE_CURVE('',#82,#83,#48,.T.);
#97=EDGE_CURVE('',#83,#84,#49,.T.);
#98=EDGE_CURVE('',#85,#84,#50,.T.);
#99=EDGE_CURVE('',#82,#85,#51,.T.);
#100=EDGE_CURVE('',#86,#82,#52,.T.);
#101=EDGE_CURVE('',#87,#85,#53,.T.);
#102=EDGE_CURVE('',#86,#87,#54,.T.);
#103=EDGE_CURVE('',#88,#86,#55,.T.);
#104=EDGE_CURVE('',#89,#87,#56,.T.);
#105=EDGE_CURVE('',#88,#89,#57,.T.);
#106=EDGE_CURVE('',#83,#88,#58,.T.);
#107=EDGE_CURVE('',#84,#89,#59,.T.);
#108=ORIENTED_EDGE('',*,*,#90,.F.);
#109=ORIENTED_EDGE('',*,*,#91,.T.);
#110=ORIENTED_EDGE('',*,*,#92,.F.);
#111=ORIENTED_EDGE('',*,*,#91,.F.);
#112=ORIENTED_EDGE('',*,*,#90,.T.);
#113=ORIENTED_EDGE('',*,*,#93,.F.);
#114=ORIENTED_EDGE('',*,*,#94,.T.);
#115=ORIENTED_EDGE('',*,*,#95,.F.);
#116=ORIENTED_EDGE('',*,*,#94,.F.);
#117=ORIENTED_EDGE('',*,*,#93,.T.);
#118=ORIENTED_EDGE('',*,*,#96,.T.);
#119=ORIENTED_EDGE('',*,*,#97,.T.);
#120=ORIENTED_EDGE('',*,*,#98,.F.);
#121=ORIENTED_EDGE('',*,*,#99,.F.);
#122=ORIENTED_EDGE('',*,*,#100,.T.);
#123=ORIENTED_EDGE('',*,*,#99,.T.);
#124=ORIENTED_EDGE('',*,*,#101,.F.);
#125=ORIENTED_EDGE('',*,*,#102,.F.);
#126=ORIENTED_EDGE('',*,*,#103,.T.);
#127=ORIENTED_EDGE('',*,*,#102,.T.);
#128=ORIENTED_EDGE('',*,*,#104,.F.);
#129=ORIENTED_EDGE('',*,*,#105,.F.);
#130=ORIENTED_EDGE('',*,*,#106,.T.);
#131=ORIENTED_EDGE('',*,*,#105,.T.);
#132=ORIENTED_EDGE('',*,*,#107,.F.);
#133=ORIENTED_EDGE('',*,*,#97,.F.);
#134=ORIENTED_EDGE('',*,*,#107,.T.);
#135=ORIENTED_EDGE('',*,*,#104,.T.);
#136=ORIENTED_EDGE('',*,*,#101,.T.);
#137=ORIENTED_EDGE('',*,*,#98,.T.);
#138=ORIENTED_EDGE('',*,*,#106,.F.);
#139=ORIENTED_EDGE('',*,*,#96,.F.);
#140=ORIENTED_EDGE('',*,*,#100,.F.);
#141=ORIENTED_EDGE('',*,*,#103,.F.);
#142=ORIENTED_EDGE('',*,*,#92,.T.);
#143=ORIENTED_EDGE('',*,*,#95,.T.);
#144=CYLINDRICAL_SURFACE('',#175,0.4);
#145=CYLINDRICAL_SURFACE('',#179,0.4);
#146=STYLED_ITEM('',(#295),#151);
#147=STYLED_ITEM('',(#295),#152);
#148=STYLED_ITEM('',(#295),#153);
#149=STYLED_ITEM('',(#295),#154);
#150=STYLED_ITEM('',(#294),#13);
#151=ADVANCED_FACE('',(#24),#144,.T.);
#152=ADVANCED_FACE('',(#25),#16,.T.);
#153=ADVANCED_FACE('',(#26),#145,.T.);
#154=ADVANCED_FACE('',(#27),#17,.T.);
#155=ADVANCED_FACE('',(#28),#18,.T.);
#156=ADVANCED_FACE('',(#29),#19,.T.);
#157=ADVANCED_FACE('',(#30),#20,.T.);
#158=ADVANCED_FACE('',(#31),#21,.T.);
#159=ADVANCED_FACE('',(#32),#22,.T.);
#160=ADVANCED_FACE('',(#33,#14,#15),#23,.F.);
#161=CLOSED_SHELL('',(#151,#152,#153,#154,#155,#156,#157,#158,#159,#160));
#162=DERIVED_UNIT_ELEMENT(#164,1.);
#163=DERIVED_UNIT_ELEMENT(#279,-3.);
#164=(
MASS_UNIT()
NAMED_UNIT(*)
SI_UNIT(.KILO.,.GRAM.)
);
#165=DERIVED_UNIT((#162,#163));
#166=MEASURE_REPRESENTATION_ITEM('density measure',
POSITIVE_RATIO_MEASURE(7850.),#165);
#167=PROPERTY_DEFINITION_REPRESENTATION(#172,#169);
#168=PROPERTY_DEFINITION_REPRESENTATION(#173,#170);
#169=REPRESENTATION('material name',(#171),#276);
#170=REPRESENTATION('density',(#166),#276);
#171=DESCRIPTIVE_REPRESENTATION_ITEM('Steel','Steel');
#172=PROPERTY_DEFINITION('material property','material name',#286);
#173=PROPERTY_DEFINITION('material property','density of part',#286);
#174=AXIS2_PLACEMENT_3D('',#233,#189,#190);
#175=AXIS2_PLACEMENT_3D('',#234,#191,#192);
#176=AXIS2_PLACEMENT_3D('',#236,#193,#194);
#177=AXIS2_PLACEMENT_3D('',#239,#196,#197);
#178=AXIS2_PLACEMENT_3D('',#240,#198,#199);
#179=AXIS2_PLACEMENT_3D('',#241,#200,#201);
#180=AXIS2_PLACEMENT_3D('',#243,#202,#203);
#181=AXIS2_PLACEMENT_3D('',#246,#205,#206);
#182=AXIS2_PLACEMENT_3D('',#247,#207,#208);
#183=AXIS2_PLACEMENT_3D('',#248,#209,#210);
#184=AXIS2_PLACEMENT_3D('',#257,#215,#216);
#185=AXIS2_PLACEMENT_3D('',#263,#220,#221);
#186=AXIS2_PLACEMENT_3D('',#269,#225,#226);
#187=AXIS2_PLACEMENT_3D('',#272,#229,#230);
#188=AXIS2_PLACEMENT_3D('',#273,#231,#232);
#189=DIRECTION('axis',(0.,0.,1.));
#190=DIRECTION('refdir',(1.,0.,0.));
#191=DIRECTION('center_axis',(0.,0.,-1.));
#192=DIRECTION('ref_axis',(1.,0.,0.));
#193=DIRECTION('center_axis',(0.,0.,-1.));
#194=DIRECTION('ref_axis',(1.,0.,0.));
#195=DIRECTION('',(0.,0.,1.));
#196=DIRECTION('center_axis',(0.,0.,1.));
#197=DIRECTION('ref_axis',(1.,0.,0.));
#198=DIRECTION('center_axis',(0.,0.,-1.));
#199=DIRECTION('ref_axis',(1.,0.,0.));
#200=DIRECTION('center_axis',(0.,0.,-1.));
#201=DIRECTION('ref_axis',(1.,0.,0.));
#202=DIRECTION('center_axis',(0.,0.,-1.));
#203=DIRECTION('ref_axis',(1.,0.,0.));
#204=DIRECTION('',(0.,0.,1.));
#205=DIRECTION('center_axis',(0.,0.,1.));
#206=DIRECTION('ref_axis',(1.,0.,0.));
#207=DIRECTION('center_axis',(0.,0.,-1.));
#208=DIRECTION('ref_axis',(1.,0.,0.));
#209=DIRECTION('center_axis',(0.,-1.,0.));
#210=DIRECTION('ref_axis',(1.,0.,0.));
#211=DIRECTION('',(1.,0.,0.));
#212=DIRECTION('',(0.,0.,1.));
#213=DIRECTION('',(1.,0.,0.));
#214=DIRECTION('',(0.,0.,1.));
#215=DIRECTION('center_axis',(-1.,0.,0.));
#216=DIRECTION('ref_axis',(0.,-1.,0.));
#217=DIRECTION('',(0.,-1.,0.));
#218=DIRECTION('',(0.,-1.,0.));
#219=DIRECTION('',(0.,0.,1.));
#220=DIRECTION('center_axis',(0.,1.,0.));
#221=DIRECTION('ref_axis',(-1.,0.,0.));
#222=DIRECTION('',(-1.,0.,0.));
#223=DIRECTION('',(-1.,0.,0.));
#224=DIRECTION('',(0.,0.,1.));
#225=DIRECTION('center_axis',(1.,0.,0.));
#226=DIRECTION('ref_axis',(0.,1.,0.));
#227=DIRECTION('',(0.,1.,0.));
#228=DIRECTION('',(0.,1.,0.));
#229=DIRECTION('center_axis',(0.,0.,1.));
#230=DIRECTION('ref_axis',(1.,0.,0.));
#231=DIRECTION('center_axis',(0.,0.,1.));
#232=DIRECTION('ref_axis',(1.,0.,0.));
#233=CARTESIAN_POINT('',(0.,0.,0.));
#234=CARTESIAN_POINT('Origin',(2.5,0.,0.));
#235=CARTESIAN_POINT('',(2.1,4.89858719658942E-17,-2.1));
#236=CARTESIAN_POINT('Origin',(2.5,0.,-2.1));
#237=CARTESIAN_POINT('',(2.1,4.89858719658942E-17,0.));
#238=CARTESIAN_POINT('',(2.1,4.89858719658942E-17,0.));
#239=CARTESIAN_POINT('Origin',(2.5,0.,0.));
#240=CARTESIAN_POINT('Origin',(2.5,0.,-2.1));
#241=CARTESIAN_POINT('Origin',(-2.5,0.,0.));
#242=CARTESIAN_POINT('',(-2.9,4.89858719658941E-17,-2.1));
#243=CARTESIAN_POINT('Origin',(-2.5,0.,-2.1));
#244=CARTESIAN_POINT('',(-2.9,4.89858719658941E-17,0.));
#245=CARTESIAN_POINT('',(-2.9,4.89858719658941E-17,0.));
#246=CARTESIAN_POINT('Origin',(-2.5,0.,0.));
#247=CARTESIAN_POINT('Origin',(-2.5,0.,-2.1));
#248=CARTESIAN_POINT('Origin',(-3.6,-1.25,0.));
#249=CARTESIAN_POINT('',(-3.6,-1.25,0.));
#250=CARTESIAN_POINT('',(3.6,-1.25,0.));
#251=CARTESIAN_POINT('',(-3.6,-1.25,0.));
#252=CARTESIAN_POINT('',(3.6,-1.25,6.5));
#253=CARTESIAN_POINT('',(3.6,-1.25,0.));
#254=CARTESIAN_POINT('',(-3.6,-1.25,6.5));
#255=CARTESIAN_POINT('',(-3.6,-1.25,6.5));
#256=CARTESIAN_POINT('',(-3.6,-1.25,0.));
#257=CARTESIAN_POINT('Origin',(-3.6,1.25,0.));
#258=CARTESIAN_POINT('',(-3.6,1.25,0.));
#259=CARTESIAN_POINT('',(-3.6,1.25,0.));
#260=CARTESIAN_POINT('',(-3.6,1.25,6.5));
#261=CARTESIAN_POINT('',(-3.6,1.25,6.5));
#262=CARTESIAN_POINT('',(-3.6,1.25,0.));
#263=CARTESIAN_POINT('Origin',(3.6,1.25,0.));
#264=CARTESIAN_POINT('',(3.6,1.25,0.));
#265=CARTESIAN_POINT('',(3.6,1.25,0.));
#266=CARTESIAN_POINT('',(3.6,1.25,6.5));
#267=CARTESIAN_POINT('',(3.6,1.25,6.5));
#268=CARTESIAN_POINT('',(3.6,1.25,0.));
#269=CARTESIAN_POINT('Origin',(3.6,-1.25,0.));
#270=CARTESIAN_POINT('',(3.6,-1.25,0.));
#271=CARTESIAN_POINT('',(3.6,-1.25,6.5));
#272=CARTESIAN_POINT('Origin',(-5.55111512312578E-16,0.,6.5));
#273=CARTESIAN_POINT('Origin',(-5.55111512312578E-16,0.,0.));
#274=UNCERTAINTY_MEASURE_WITH_UNIT(LENGTH_MEASURE(0.01),#278,
'DISTANCE_ACCURACY_VALUE',
'Maximum model space distance between geometric entities at asserted c
onnectivities');
#275=UNCERTAINTY_MEASURE_WITH_UNIT(LENGTH_MEASURE(0.01),#278,
'DISTANCE_ACCURACY_VALUE',
'Maximum model space distance between geometric entities at asserted c
onnectivities');
#276=(
GEOMETRIC_REPRESENTATION_CONTEXT(3)
GLOBAL_UNCERTAINTY_ASSIGNED_CONTEXT((#274))
GLOBAL_UNIT_ASSIGNED_CONTEXT((#278,#280,#281))
REPRESENTATION_CONTEXT('','3D')
);
#277=(
GEOMETRIC_REPRESENTATION_CONTEXT(3)
GLOBAL_UNCERTAINTY_ASSIGNED_CONTEXT((#275))
GLOBAL_UNIT_ASSIGNED_CONTEXT((#278,#280,#281))
REPRESENTATION_CONTEXT('','3D')
);
#278=(
LENGTH_UNIT()
NAMED_UNIT(*)
SI_UNIT(.MILLI.,.METRE.)
);
#279=(
LENGTH_UNIT()
NAMED_UNIT(*)
SI_UNIT($,.METRE.)
);
#280=(
NAMED_UNIT(*)
PLANE_ANGLE_UNIT()
SI_UNIT($,.RADIAN.)
);
#281=(
NAMED_UNIT(*)
SI_UNIT($,.STERADIAN.)
SOLID_ANGLE_UNIT()
);
#282=SHAPE_DEFINITION_REPRESENTATION(#283,#284);
#283=PRODUCT_DEFINITION_SHAPE('',$,#286);
#284=SHAPE_REPRESENTATION('',(#174),#276);
#285=PRODUCT_DEFINITION_CONTEXT('part definition',#290,'design');
#286=PRODUCT_DEFINITION('(Unsaved)','(Unsaved)',#287,#285);
#287=PRODUCT_DEFINITION_FORMATION('',$,#292);
#288=PRODUCT_RELATED_PRODUCT_CATEGORY('(Unsaved)','(Unsaved)',(#292));
#289=APPLICATION_PROTOCOL_DEFINITION('international standard',
'automotive_design',2009,#290);
#290=APPLICATION_CONTEXT(
'Core Data for Automotive Mechanical Design Process');
#291=PRODUCT_CONTEXT('part definition',#290,'mechanical');
#292=PRODUCT('(Unsaved)','(Unsaved)',$,(#291));
#293=PRESENTATION_STYLE_ASSIGNMENT((#296));
#294=PRESENTATION_STYLE_ASSIGNMENT((#297));
#295=PRESENTATION_STYLE_ASSIGNMENT((#298));
#296=SURFACE_STYLE_USAGE(.BOTH.,#299);
#297=SURFACE_STYLE_USAGE(.BOTH.,#300);
#298=SURFACE_STYLE_USAGE(.BOTH.,#301);
#299=SURFACE_SIDE_STYLE('',(#302));
#300=SURFACE_SIDE_STYLE('',(#303));
#301=SURFACE_SIDE_STYLE('',(#304));
#302=SURFACE_STYLE_FILL_AREA(#305);
#303=SURFACE_STYLE_FILL_AREA(#306);
#304=SURFACE_STYLE_FILL_AREA(#307);
#305=FILL_AREA_STYLE('Steel - Satin',(#308));
#306=FILL_AREA_STYLE('ABS (White)',(#309));
#307=FILL_AREA_STYLE('Aluminum - Polished',(#310));
#308=FILL_AREA_STYLE_COLOUR('Steel - Satin',#311);
#309=FILL_AREA_STYLE_COLOUR('ABS (White)',#312);
#310=FILL_AREA_STYLE_COLOUR('Aluminum - Polished',#313);
#311=COLOUR_RGB('Steel - Satin',0.627450980392157,0.627450980392157,0.627450980392157);
#312=COLOUR_RGB('ABS (White)',0.964705882352941,0.964705882352941,0.952941176470588);
#313=COLOUR_RGB('Aluminum - Polished',0.96078431372549,0.96078431372549,
0.964705882352941);
ENDSEC;
END-ISO-10303-21;
